<svg height="512" viewBox="0 0 64 64" width="512" xmlns="http://www.w3.org/2000/svg"><g id="Filled_outline" data-name="Filled outline"><path d="m22 49h24v12h-24z" fill="#b11e48"/><path d="m22 27v3l-7.964-7.964a3.535 3.535 0 0 0 -5 0 3.535 3.535 0 0 0 0 5l12.964 12.964v9h24v-22z" fill="#e97424"/><path d="m22 53h12v4h-12z" fill="#da1c4b"/><path d="m37 7a3 3 0 0 1 3 3v17a0 0 0 0 1 0 0h-6a0 0 0 0 1 0 0v-17a3 3 0 0 1 3-3z" fill="#b11e48"/><path d="m42 53h4v4h-4z" fill="#da1c4b"/><path d="m22 8v19h6v-19a3 3 0 0 0 -3-3 3 3 0 0 0 -3 3z" fill="#b11e48"/><path d="m28 6v21h6v-21a3 3 0 0 0 -3-3 3 3 0 0 0 -3 3z" fill="#da1c4b"/><path d="m34 10v17h6v-17a3 3 0 0 0 -3-3 3 3 0 0 0 -3 3z" fill="#b11e48"/><path d="m40 12v15h6v-15a3 3 0 0 0 -3-3 3 3 0 0 0 -3 3z" fill="#da1c4b"/><path d="m33 31h5l-3 5h5l-7 9v-5h-5z" fill="#fcf05a"/><path d="m21 61a1 1 0 0 0 1 1h24a1 1 0 0 0 1-1v-49a4 4 0 0 0 -6.239-3.313 3.948 3.948 0 0 0 -5.761-2.131v-.556a3.99 3.99 0 0 0 -7.761-1.313 4 4 0 0 0 -6.239 3.313v19.586l-6.258-6.258a4.535 4.535 0 0 0 -6.414 6.414l12.672 12.672zm24-5h-2v-2h2zm0-4h-3a1 1 0 0 0 -1 1v4a1 1 0 0 0 1 1h3v2h-22v-2h11a1 1 0 0 0 1-1v-4a1 1 0 0 0 -1-1h-11v-2h22zm-22 4v-2h10v2zm18-44a2 2 0 0 1 4 0v14h-4zm-6-2a2 2 0 0 1 4 0v16h-4zm-6-4a2 2 0 0 1 4 0v20h-4zm-6 2a2 2 0 0 1 4 0v18h-4zm-13.258 18.328a2.536 2.536 0 0 1 3.586-3.586l7.965 7.965a1 1 0 0 0 1.707-.707v-2h22v20h-22v-8a1 1 0 0 0 -.293-.707z"/><path d="m28 41h4v4a1 1 0 0 0 .676.946 1.01 1.01 0 0 0 .324.054 1 1 0 0 0 .789-.386l7-9a1 1 0 0 0 -.789-1.614h-3.233l2.09-3.485a1 1 0 0 0 -.857-1.515h-5a1 1 0 0 0 -.874.515l-5 9a1 1 0 0 0 .874 1.485zm5.589-9h2.644l-2.09 3.485a1 1 0 0 0 .857 1.515h2.955l-3.955 5.086v-2.086a1 1 0 0 0 -1-1h-3.3z"/><path d="m37 52h2v2h-2z"/><path d="m37 56h2v2h-2z"/></g></svg>