<?xml version="1.0" encoding="utf-8"?>
<!-- Generator: Adobe Illustrator 19.2.1, SVG Export Plug-In . SVG Version: 6.00 Build 0)  -->
<svg version="1.1" id="layer" xmlns="http://www.w3.org/2000/svg" xmlns:xlink="http://www.w3.org/1999/xlink" x="0px" y="0px"
	 viewBox="0 0 652 652" style="enable-background:new 0 0 652 652;" xml:space="preserve">
<style type="text/css">
	.st0{fill:#EC6707;}
</style>
<g>
	<path class="st0" d="M104.8,288.4H63.1v-30.3H21.3v125.5h83.5c11,0,19.9-8.9,19.9-19.9v-55.4C124.7,297.3,115.8,288.4,104.8,288.4z
		 M82.9,355.8H63v-39.6h19.9V355.8z"/>
	<path d="M601.3,288.4h-63.4c-11,0-19.9,8.9-19.9,19.9v55.4c0,11,8.9,19.9,19.9,19.9h63.4c11,0,19.9-8.9,19.9-19.9v-55.4
		C621.3,297.3,612.3,288.4,601.3,288.4z M579.6,355.8h-19.9v-39.6h19.9V355.8z"/>
	<path d="M308.6,355.8h-19.9v-39.6h19.9l0.1,14.3l41.5-0.1v-22.1c0-11-8.9-19.9-19.9-19.9h-63.4c-11,0-19.9,8.9-19.9,19.9v55.4
		c0,11,8.9,19.9,19.9,19.9h63.4c11,0,19.9-8.9,19.9-19.9v-22.2h-41.6L308.6,355.8"/>
	<rect x="357.8" y="288.4" width="41.8" height="95.2"/>
	<rect x="197.6" y="288.4" width="41.8" height="95.2"/>
	<path d="M191.6,288.4h-17.4v-30.2h-41.9v105.6c0,11,8.9,19.8,19.9,19.8h39.4v-27h-17.4v-41.8h17.4L191.6,288.4"/>
	<path d="M448.7,383.6v-67.4h19.9v67.4h41.7v-75.3c0-11-8.9-19.9-19.9-19.9h-83.3v95.2H448.7"/>
</g>
</svg>
